<svg width="35" height="12" viewBox="0 0 35 12" fill="none" xmlns="http://www.w3.org/2000/svg">
<path d="M4.29364 4.30798C4.27377 4.33903 4.24645 4.36014 4.21913 4.36014C4.21292 4.36014 3.72115 4.39118 3.49266 4.72524C3.38462 4.88171 3.31135 5.11145 3.27782 5.41446C3.782 5.43557 4.10612 5.4455 4.10612 5.4455C4.16697 5.45544 4.20671 5.51877 4.20671 5.60198V6.91832C4.20671 7.00152 4.16573 7.07479 4.10612 7.07479C4.10612 7.07479 3.75593 7.0959 3.21821 7.10584C3.212 7.50323 3.212 7.86833 3.212 8.108C3.212 9.14245 3.17102 11.0325 3.17102 11.0536C3.17102 11.1368 3.12383 11.2002 3.07043 11.2002H0.894735C0.841336 11.2002 0.794146 11.1381 0.794146 11.0536C0.794146 11.0325 0.693557 8.91271 0.679897 7.09466C0.376889 7.08349 0.195581 7.07355 0.18813 7.07355C0.134731 7.07355 0.09375 7.00028 0.09375 6.91708V5.60073C0.09375 5.51753 0.134731 5.4542 0.18813 5.44426C0.194339 5.44426 0.383098 5.43308 0.693557 5.42315C0.713426 4.60851 0.787937 3.89817 1.0363 3.40765C1.37284 2.77059 1.80376 2.55078 2.69912 2.55078C3.85031 2.55078 4.1322 2.81157 4.15952 2.84385C4.18684 2.86497 4.2005 2.90595 4.20671 2.94817L4.32096 4.18131C4.31972 4.22478 4.31351 4.27693 4.29364 4.30798Z" fill="white"/>
<path d="M9.15938 11.0562C9.15938 11.1394 9.11344 11.2027 9.06004 11.2027H6.69806C6.64466 11.2027 6.60493 11.1406 6.59872 11.0562C6.59872 11.0351 6.57885 9.751 6.61859 8.13165C6.65833 6.51229 6.70427 5.25928 6.70427 5.2481C6.71048 5.1649 6.75022 5.10156 6.80362 5.10156H8.95945C9.01285 5.10156 9.0588 5.16366 9.0588 5.2481C9.0588 5.25803 9.1184 6.51229 9.15193 8.13165C9.19167 9.76093 9.15938 11.045 9.15938 11.0562Z" fill="white"/>
<path d="M14.6281 11.0562C14.6281 11.1394 14.5822 11.2027 14.5288 11.2027H12.1668C12.1134 11.2027 12.0737 11.1406 12.0675 11.0562C12.0675 11.0351 12.0476 9.751 12.0873 8.13165C12.1271 6.51229 12.173 5.25928 12.173 5.2481C12.1792 5.1649 12.219 5.10156 12.2724 5.10156H14.4282C14.4816 5.10156 14.5275 5.16366 14.5275 5.2481C14.5275 5.25803 14.5872 6.51229 14.6207 8.13165C14.6617 9.76093 14.6281 11.045 14.6281 11.0562Z" fill="white"/>
<path d="M20.0969 11.0562C20.0969 11.1394 20.0509 11.2027 19.9975 11.2027H17.6356C17.5822 11.2027 17.5424 11.1406 17.5362 11.0562C17.5362 11.0351 17.5163 9.751 17.5561 8.13165C17.5958 6.51229 17.6418 5.25928 17.6418 5.2481C17.648 5.1649 17.6877 5.10156 17.7411 5.10156H19.897C19.9503 5.10156 19.9963 5.16366 19.9963 5.2481C19.9963 5.25803 20.0559 6.51229 20.0894 8.13165C20.1292 9.76093 20.0969 11.045 20.0969 11.0562Z" fill="white"/>
<path d="M18.8197 4.68635C19.6489 4.68635 20.3211 4.01416 20.3211 3.18497C20.3211 2.35578 19.6489 1.68359 18.8197 1.68359C17.9906 1.68359 17.3184 2.35578 17.3184 3.18497C17.3184 4.01416 17.9906 4.68635 18.8197 4.68635Z" fill="url(#paint0_linear_2269_5145)"/>
<path d="M13.351 4.68635C14.1802 4.68635 14.8524 4.01416 14.8524 3.18497C14.8524 2.35578 14.1802 1.68359 13.351 1.68359C12.5218 1.68359 11.8496 2.35578 11.8496 3.18497C11.8496 4.01416 12.5218 4.68635 13.351 4.68635Z" fill="url(#paint1_linear_2269_5145)"/>
<path d="M7.88224 4.68635C8.71143 4.68635 9.38362 4.01416 9.38362 3.18497C9.38362 2.35578 8.71143 1.68359 7.88224 1.68359C7.05305 1.68359 6.38086 2.35578 6.38086 3.18497C6.38086 4.01416 7.05305 4.68635 7.88224 4.68635Z" fill="url(#paint2_linear_2269_5145)"/>
<path d="M25.2514 4.68245C26.0806 4.68245 26.7528 4.01026 26.7528 3.18107C26.7528 2.35188 26.0806 1.67969 25.2514 1.67969C24.4222 1.67969 23.75 2.35188 23.75 3.18107C23.75 4.01026 24.4222 4.68245 25.2514 4.68245Z" fill="white"/>
<path d="M29.257 4.68581C30.3783 4.68581 31.2874 3.77676 31.2874 2.6554C31.2874 1.53404 30.3783 0.625 29.257 0.625C28.1356 0.625 27.2266 1.53404 27.2266 2.6554C27.2266 3.77676 28.1356 4.68581 29.257 4.68581Z" fill="white"/>
<path d="M34.2289 6.28237L32.4046 7.77009V5.47766C32.4046 5.26779 32.2345 5.09766 32.0246 5.09766H23.0089C22.799 5.09766 22.6289 5.26779 22.6289 5.47766V10.8188C22.6289 11.0287 22.799 11.1988 23.0089 11.1988H24.4594C24.1079 10.9244 23.8819 10.4972 23.8819 10.0166C23.8819 9.18702 24.5538 8.51519 25.3833 8.51519C26.2128 8.51519 26.8847 9.18702 26.8847 10.0166C26.8847 10.4972 26.6587 10.9244 26.3072 11.1988H28.4916C28.1402 10.9244 27.9142 10.4972 27.9142 10.0166C27.9142 9.18702 28.586 8.51519 29.4155 8.51519C30.2451 8.51519 30.9169 9.18702 30.9169 10.0166C30.9169 10.4972 30.6909 10.9244 30.3395 11.1988H32.0246C32.2345 11.1988 32.4046 11.0287 32.4046 10.8188V8.52637L34.2289 10.0141C34.3071 10.0774 34.4226 10.0228 34.4226 9.92219V6.37427C34.4226 6.27368 34.3071 6.21904 34.2289 6.28237Z" fill="white"/>
<defs>
<linearGradient id="paint0_linear_2269_5145" x1="20.2782" y1="3.54364" x2="17.3611" y2="2.82557" gradientUnits="userSpaceOnUse">
<stop stop-color="#E42256"/>
<stop offset="0.0399" stop-color="#E32955"/>
<stop offset="0.3278" stop-color="#DD4547"/>
<stop offset="0.5933" stop-color="#D9543B"/>
<stop offset="0.8258" stop-color="#D65B33"/>
<stop offset="1" stop-color="#D55E30"/>
</linearGradient>
<linearGradient id="paint1_linear_2269_5145" x1="14.8089" y1="3.54364" x2="11.8918" y2="2.82557" gradientUnits="userSpaceOnUse">
<stop stop-color="#E42256"/>
<stop offset="0.0399" stop-color="#E32955"/>
<stop offset="0.3278" stop-color="#DD4547"/>
<stop offset="0.5933" stop-color="#D9543B"/>
<stop offset="0.8258" stop-color="#D65B33"/>
<stop offset="1" stop-color="#D55E30"/>
</linearGradient>
<linearGradient id="paint2_linear_2269_5145" x1="9.34088" y1="3.54364" x2="6.4238" y2="2.82557" gradientUnits="userSpaceOnUse">
<stop stop-color="#E42256"/>
<stop offset="0.0399" stop-color="#E32955"/>
<stop offset="0.3278" stop-color="#DD4547"/>
<stop offset="0.5933" stop-color="#D9543B"/>
<stop offset="0.8258" stop-color="#D65B33"/>
<stop offset="1" stop-color="#D55E30"/>
</linearGradient>
</defs>
</svg>
